<?xml version="1.0" encoding="UTF-8"?>
<!DOCTYPE svg PUBLIC "-//W3C//DTD SVG 1.1//EN" "http://www.w3.org/Graphics/SVG/1.1/DTD/svg11.dtd">
<!-- Creator: CorelDRAW 2019 (64-Bit) -->
<svg xmlns="http://www.w3.org/2000/svg" xml:space="preserve" width="3.14728in" height="1.83161in" version="1.1" style="shape-rendering:geometricPrecision; text-rendering:geometricPrecision; image-rendering:optimizeQuality; fill-rule:evenodd; clip-rule:evenodd"
viewBox="0 0 2819.8 1641.03"
 xmlns:xlink="http://www.w3.org/1999/xlink"
 xmlns:xodm="http://www.corel.com/coreldraw/odm/2003">
 <defs>
  <style type="text/css">
   <![CDATA[
    .fil0 {fill:#FEFEFE}
    .fil2 {fill:#353334}
    .fil6 {fill:#353535}
    .fil3 {fill:#363435}
    .fil4 {fill:#363536}
    .fil23 {fill:#646363}
    .fil36 {fill:#848384}
    .fil21 {fill:#8C8B8B}
    .fil18 {fill:#918F90}
    .fil22 {fill:#959494}
    .fil15 {fill:#989697}
    .fil20 {fill:#9D9B9C}
    .fil14 {fill:#A29F9F}
    .fil28 {fill:#A4A3A4}
    .fil13 {fill:#A8A6A7}
    .fil12 {fill:#ACAAAB}
    .fil26 {fill:#B4B3B4}
    .fil25 {fill:#BCBBBB}
    .fil24 {fill:#D8A688}
    .fil9 {fill:#DC916A}
    .fil5 {fill:#DC9366}
    .fil7 {fill:#E29A75}
    .fil19 {fill:#E59266}
    .fil32 {fill:#E8CDC0}
    .fil27 {fill:#EBBCA3}
    .fil33 {fill:#EBC6AB}
    .fil35 {fill:#EEB08E}
    .fil1 {fill:#F5884F}
    .fil10 {fill:#F6BB9C}
    .fil30 {fill:#F6BFA0}
    .fil37 {fill:#F6C5A1}
    .fil29 {fill:#F7C6A9}
    .fil17 {fill:#FAF9F9}
    .fil31 {fill:#FCCDB4}
    .fil16 {fill:#FCFAFB}
    .fil34 {fill:#FDD5B8}
    .fil11 {fill:#FDFDFD}
    .fil8 {fill:#FEFEFE}
   ]]>
  </style>
 </defs>
 <g id="Layer_x0020_1">
  <metadata id="CorelCorpID_0Corel-Layer"/>
  <rect class="fil0" x="-0" width="2819.8" height="1641.03"/>
  <g id="_2193045255760">
   <path class="fil1" d="M724.93 371.79l-2.73 3.69c-0.17,-0.41 -0.76,1.07 -1.41,1.4l0.97 7.55 13.32 26.03c4.35,0 3.26,-1.08 3.26,3.25l1.6 4.63 11.47 19.61c4.74,0 3.48,-1.14 3.48,3.71l1 4.34 0.78 0.23 4.36 8.35 18.44 32.24c4.03,0 3.25,-1.13 3.25,2.43l2.71 5.9 23.9 44.36c4.07,2.69 2.63,-2.49 4.97,7.88l16.11 28.65c4.5,0 3.36,-1.11 3.36,3.38l1.4 4.85 2.38 3.09c4.33,2.79 2.29,-3.25 5.34,7.29l475.56 -16.6c3.76,-3.04 -5.4,-1.73 6.85,-3.13l-1.94 -6.31 -4.8 -10.08 -6.6 -8.87 -0.46 -2.39 -7.39 -12.65 -24.97 -43.19 -6.37 -8.7 -9.86 -15.99 -6.71 -2.41c-4.28,-15.48 -19.34,-29.89 -21.15,-43.4l-2.61 -7.34 -7.37 -11.13 -21.39 -38.7c-3.84,-2.7 -2.01,-0.02 -6.29,-5.21 -2.96,-3.6 -0.19,-0.17 -2.55,-5.23l-469.91 18.47z"/>
   <polygon class="fil2" points="407.9,794.13 407.9,803.36 529.12,1011.25 534.68,1014.83 536.26,1010.24 802.52,616.01 679.03,397.32 "/>
   <path class="fil1" d="M1764.71 826.95l71.41 219.3c7.08,5.27 8.99,17.06 12.23,26.41 13.53,1.16 45.52,2.8 57.51,-0.54 2.6,-9.4 2.76,-376.98 -0.47,-393.34l-54.18 -0.77 -1.88 251.09c-14.93,-12.31 -64.97,-212.11 -77.98,-248.03 -18.93,-4.85 -44.7,-2.37 -66.13,-2.29 -3.23,12.89 -3.25,381.07 0.03,394.27l38.77 0.95c3.24,-0.07 3.5,0.07 6.7,-0.5l5.96 -1.89c9.44,-9.89 -5.21,-223.94 4.73,-248.71 5.49,0.53 1.03,-2.08 3.31,4.06z"/>
   <path class="fil1" d="M2093.97 1000.87c-3.62,7.08 -2.31,6.45 -9.35,10.03l-57.85 6.23 0.31 -278.95c86.31,-6.25 71.44,24.92 71.44,99.59 0,41.7 5.49,131.09 -4.54,163.09zm28.86 53.49c5.32,-6.66 2.18,-3.54 8.8,-6.59l-0.61 -0.11c2.78,-7.74 -1.37,-2.47 5.18,-6.77 34.08,-39.66 21.14,-132.89 21.14,-196.19 0,-81.44 7.86,-128.76 -56.42,-161.27 -5.88,-0.87 -10.1,0.52 -10.1,-4.44l-123.14 -4.49 -2.33 2.57 0.42 399.35c41.32,7.97 134.65,4.01 157.06,-22.05z"/>
   <path class="fil1" d="M2279.13 741.1c3.57,-7.01 -1.05,-3.08 6.93,-5.26l31.09 -4.87c8.84,-0.29 18.99,4.55 18.2,14.36 8.07,43.08 4.89,104.13 4.89,154.67 0,43.14 15.47,124.19 -38.53,119.98 -46.67,-3.64 -31.2,-87.52 -31.2,-129.19 0,-45.79 -9.47,-114.65 8.62,-149.69zm-23.64 -56.34c-2.62,4.06 -0.36,1.52 -3.99,4.72 -3.12,2.75 1.88,-0.48 -4.07,1.84l-17.02 17 -1.98 6.31 -4.5 1.69c-18.35,50.61 -13.27,67.28 -13.27,123.77 0,46.12 -0.1,92.24 -0.12,138.35 -0.06,116.62 124.43,118.7 153.73,84.66l14.05 -12.15 7.36 -10.08 6.45 -9.97c0.29,-0.34 1.17,-0.46 1.39,-1.34 0.22,-0.91 0.97,-0.9 1.45,-1.36l8.79 -24.68 0 -251.86 -24.89 -49.18c-3.75,-1.93 -4.45,-1.91 -6.83,-3.91 -4.14,-3.48 -2.13,-2.02 -4.81,-6.39 -25.01,-33.32 -81.94,-19.45 -111.74,-7.4z"/>
   <path class="fil1" d="M1092.84 1060c5.68,2.92 0.85,-0.67 3.8,2.17 3.36,3.23 1.34,0.87 3.96,4.83 43.47,18.92 63.71,22.91 108.1,-0.61 3.5,-6 6.22,-7.57 11.27,-10.74l6.04 -4.54 7.61 -10.1 8.84 -12.81c17.54,-66.95 10.79,-267.01 8.54,-352.22l-62.71 -0.18c-4.87,50.56 -0.69,122.9 -0.69,175.81 0,35.23 9.13,142.35 -10.91,159.64 -4.37,6.61 1.4,2.19 -7.1,5.07 -40.95,21.92 -52.35,-19.17 -52.16,-54.09l0.1 -230.46c-0.04,-66.02 11.84,-58.32 -59.03,-55.56 -4.23,65.05 -0.41,143.44 -0.41,209.96 0,62.84 -11.72,142.91 34.76,173.82z"/>
   <path class="fil3" d="M1505.05 1070.64l-7.18 2.57c0.11,-9.13 -1.81,-2.35 2.98,-6.99l6.56 -18.42 95.53 9.78c-10.81,5.44 -80.11,13.12 -97.89,13.06zm134.21 -23.89c4.96,6.22 2.34,-0.64 4.01,9.28l-17.27 -4.49 -84.46 -6.93c11.92,-6.1 72.96,-15.56 90.46,-16.58l7.26 18.73zm-116.6 -30.19l75.56 9.12 -86.95 14.28 11.39 -23.4zm36.2 -3.15c0.64,-0.36 1.45,-0.74 1.98,-0.96l5.82 -2.21c1.87,-0.52 6.05,-1.09 7.95,-1.37l45.98 -7.42 7.12 18.49 -68.84 -6.53zm-33.61 -4.85c0.9,-2.66 2.02,-6.5 3.15,-8.81 2.91,-5.95 2.11,-3.61 4.13,-6.45l52.97 6.87 -60.25 8.38zm12.79 -27.93l1.23 -7.14 68.38 -1.78 9.19 22.96 -75.56 -6.8 -6.67 -0.32c1.11,-7.86 -0.2,-3.35 3.42,-6.91zm143.8 83.24c-2.32,-16.98 -39.09,-93.1 -48.34,-114.29 -23.76,-54.41 -32.61,-55.41 -32.61,-125.62 0,-23.5 -2.18,-58.7 -0.15,-80.73 1.18,-12.83 23.68,-20.41 33.03,-44.43 18.48,-47.51 -19.46,-89.85 -61.81,-90.74 -42.28,-0.9 -80.18,38.19 -66.5,85.97 6.87,24.01 32.14,34.97 34.43,46.95 2.51,13.1 0.23,61.64 0.23,78.38 0,74.9 -2.25,70.9 -28.58,131.49 -9.58,22.05 -42.96,94.16 -46.35,112.53 49.77,18.28 12.32,18.79 94.17,8.57l80.59 -9.87c13.37,0.97 3.4,2.62 13.47,13.27l28.42 -11.47z"/>
   <path class="fil1" d="M1426.57 738.68c1.94,-6.26 -0.12,-3.6 10.41,-4.01l49.94 0.37c2.17,-12.69 5.57,-44.65 -0.13,-56.52l-186.3 -0.61 -0.56 58.58 64.53 0.11 0.14 340.68 60.42 0.16 1.54 -338.76z"/>
   <path class="fil1" d="M851.63 679.27c5.38,23.91 -4.37,370.43 2.36,392.19 8.29,3.61 140.06,2.9 157.5,1.28 2.56,-15 3.25,-36.24 -0.55,-49.51l-15.11 -2.14c-21.09,-0.41 -85.87,4.5 -88.95,-6.38l0.53 -333.72c-16.81,-3.54 -38.85,-2.4 -55.78,-1.71z"/>
   <path class="fil2" d="M1546.6 431.78c-2.05,3.7 -1.69,1.41 -1.39,6.55l14.34 39.89c51.08,-10.7 88.16,-6.16 125.65,19.17 39.9,26.97 43.77,45.24 72.65,84.27l41.33 -20.07c-5.12,-33.14 -66.61,-91.2 -90.36,-106.04 -61.95,-38.7 -88.01,-31.85 -162.21,-23.78z"/>
   <path class="fil2" d="M1708.74 537.19l-5.65 -5.53c-37.12,-33.79 -101.62,-67.51 -172.15,-40.85l16.96 43.49c53.77,-3.16 92.07,-9.63 137.2,48.34 5.7,7.33 21.78,33.81 26.27,37.93l43.4 -22.05 -46.03 -61.33z"/>
   <path class="fil2" d="M1532.71 554.32l15.68 43.42c78.27,0.69 78.26,10.79 113.7,61.99l41.87 -20.78c-11.5,-46 -99.46,-116.15 -171.25,-84.64z"/>
   <path class="fil3" d="M2308.1 1264.13l0.3 -129.43 -26.47 0.4 -14.86 85.73 -2.92 4.61 -1.6 -9.25 -16.07 -82.28 -28.06 0.04 0.17 130.01 19.27 -0.62 1.9 -73.08 17.63 73.07c32.77,4.14 13.71,-35.96 32.53,-73.88l0.28 74.48 17.9 0.2z"/>
   <path class="fil3" d="M1626.43 1186.86l26.05 78.27c6.25,-2.1 13.58,-1.02 20.15,-0.99 1.15,-23.99 0.34,-49.58 0.32,-73.75 -0.02,-65.81 6.87,-56.68 -19.35,-56.69l-1.45 84.06 -25.59 -83.98 -21.45 0.17 -0.05 130.04 19.59 -0.69 1.79 -76.43z"/>
   <path class="fil4" d="M1377.82 1184.39c4.93,16.53 10.09,31.16 15.42,47.39 8.09,24.63 2.19,35.75 31.53,31.51l-0.66 -129.42 -18.88 -0.01 -1.89 81.17 -25.08 -81.48 -21.37 0.68 -0.36 129.63 19.83 0 1.44 -79.48z"/>
   <path class="fil3" d="M1818.81 1135.07l-18.94 -0.35c-0.37,14.63 -0.18,29.48 -0.17,44.13 0.01,6.9 -0.02,13.86 0.04,20.75l-0.83 15.71c-0.11,0.47 -0.73,2.03 -0.83,1.72 -0.1,-0.3 -0.64,1.08 -1.01,1.64l-2.74 -9.83 -21.77 -74.91 -22.01 -0.41 0 130.52 19.49 0.13 0.8 -80.3 26.47 79.94 21.04 0.14 0.44 -128.87z"/>
   <path class="fil3" d="M1954.36 1156.42c3.14,10.38 3.81,76.59 -0.11,83.53 -3.78,6.71 -14.7,6.84 -18.64,-0.03 -3.88,-6.78 -2.02,-46 -2.07,-56.46 -0.08,-19.73 -1.12,-40.8 20.81,-27.05zm-39.3 84.67c4.83,26.24 44.23,34.83 58.01,8.45 5.44,-10.41 5.75,-79.1 2.87,-93.3 -5.33,-26.23 -44.45,-34.35 -58.13,-7.57 -5.16,10.1 -5.39,78.02 -2.74,92.42z"/>
   <path class="fil3" d="M1279.2 1134.17c-5.98,13.31 -1.96,62.69 -2.02,81.57 -0.1,27.03 2.8,50.46 32.24,49.62 28.71,-0.82 30.34,-25.41 30.26,-51.93 -0.05,-18.37 2.23,-64.67 -1.23,-79.66l-18.43 0.3c-9.66,51.91 17.38,118.06 -20.18,109.59 -7.38,-16.34 -3.22,-85.09 -3.51,-109.64l-17.11 0.15z"/>
   <path class="fil2" d="M1855.65 1153.61c27.71,0.26 22.86,6.47 22.79,32.15 -0.15,56.54 6.1,58.01 -22.97,59.15l0.18 -91.3zm-17.92 110.34c43.57,1.33 60.14,-0.07 59.92,-45.9 -0.17,-32.85 8.11,-73.77 -21.73,-82.14l-38.92 -1.61 0.73 129.65z"/>
   <path class="fil3" d="M1464.33 1266.43l14.55 0c34.4,-20.14 24.71,-28.1 25.54,-75.55l-30.31 -0.48 0.59 18.55 9.1 -0.01c0.18,19.34 5.32,42.5 -19.33,34.69 -5.22,-11.91 -5.77,-73.69 -1.28,-87.8 7.87,-4.04 10.1,-4.24 19.28,-0.73l1.36 19.17c9.78,4.01 8.84,2.68 19.37,2.41 0.24,-10.74 -1.21,-13.61 -2.17,-22.22 -1.96,-27.67 -58.98,-36.07 -59.29,15.04 -0.12,19.75 -0.44,40.52 0,60.19 0.48,21.6 5.81,25.04 17.85,33.35 3.18,2.19 2.84,1.8 4.72,3.4z"/>
   <path class="fil3" d="M2164.2 1175.99l-0.39 -5.6c2.79,-5.96 -0.14,-1.23 3.45,-3.56l1.35 7.14 0.17 4.39 2.41 25.45c3.94,6.37 2.84,3.28 2.63,12.04 -1.98,-0.01 -7.7,0.11 -9.29,-0.24 -5.49,-1.18 -2.08,-0.54 -5,-2.94l4.67 -36.68zm-6.72 58.22l19.16 0.05 4.52 29.74 20.8 -0.12 -22.54 -129.96 -26.31 -0.27 -21.87 130.56 20.01 -0.45 6.24 -29.55z"/>
   <path class="fil3" d="M1550.57 1176.09l-0.17 -6.98c1.8,-3.94 0.44,-2.42 3.45,-4.03l1.42 5.66 0.38 5.86 2.15 27.06c3.68,6.02 2.8,5.41 2.52,12.09 -1.83,-0.02 -7.74,0.06 -9.15,-0.3 -6.42,-1.63 -1.06,0.35 -4.9,-3.38l4.3 -35.98zm-8.2 58.14l21.25 1.25 4.23 28.42 20.81 0.07 -22.55 -130.16 -26.28 -0.11 -21.89 130.54 20.12 -0.46 4.31 -29.55z"/>
   <path class="fil3" d="M2366.29 1204.08c3.82,5.95 2.67,3.32 2.96,11.66 -2.57,0.2 -4.74,0.88 -7.43,0.55l-7.55 -2.75 4.23 -30.54c0.25,-1.58 0.75,-5.04 1.17,-6.38 2.05,-6.65 1.55,-3.79 2.76,-5.82l3.86 33.29zm-15.34 30.12l21.05 1.54 4.09 28.33 20.82 -0.14 -23.35 -129.98 -25.72 0.49 -21.63 129.84 20.2 -0.75 4.54 -29.33z"/>
   <path class="fil2" d="M2054.68 1241.08l0.08 -106.29 -17.9 0.48 -0.14 80.46c0.07,14.37 2.31,19.07 -3.25,23.21 -4.72,9.94 -16.93,8.3 -19.81,-2.71 -2.84,-10.85 2.26,-79.76 -1.65,-102.45l-17.35 1.29c-1.89,12.74 -2.31,93.82 -0.12,105.81 5.96,32.75 55.65,29.83 60.13,0.2z"/>
   <path class="fil2" d="M1123.44 1239.71c4.18,33.74 55.56,34.87 60.44,-0.55l-0.36 -104.2 -18.24 -0.09c-0.07,14.55 3.17,99.21 -3.26,103.57 -4.1,10.16 -15.65,8.98 -19.23,-0.32 -2.48,-6.44 -1.26,-25.94 -1.26,-33.92 0.02,-22.19 0.28,-44.84 -0.04,-66.84l-17.92 -1.99 -0.13 104.34z"/>
   <path class="fil3" d="M878.52 1154.83c38.11,-6.99 20.01,38.13 19.94,38.19 -7.5,3.03 -10.46,3.71 -20.16,1.18l0.22 -39.38zm-0.29 61.75c34.61,-9.08 44.29,-4.46 42.29,-51.47 -1.56,-36.72 -29.34,-30.3 -61.75,-31.5l-0.05 130.39 19.55 0.05 -0.04 -47.47z"/>
   <path class="fil5" d="M851.63 679.27c16.93,-0.69 38.97,-1.83 55.78,1.71l-0.53 333.72c3.09,10.88 67.86,5.98 88.95,6.38l15.11 2.14c3.8,13.28 3.11,34.52 0.55,49.51 -17.44,1.62 -149.21,2.33 -157.5,-1.28 -6.73,-21.76 3.02,-368.28 -2.36,-392.19zm0 0c-1.09,1.29 -0.59,-1.35 -1.94,4.58l-0.48 193.11c-0.01,34.06 -1.74,179.37 0.68,200.79l165.87 0.04 -0.47 -60.77 -104.53 -0.97 -0.72 -340.17 -53.34 0.35c-7.32,2.22 -1.99,-3.34 -5.06,3.03z"/>
   <polygon class="fil2" points="2131.45,1153.54 2131.56,1134.97 2071.6,1135.82 2071.79,1153.51 2092.57,1153.65 2092.51,1264.03 2112.12,1264.3 2112.02,1154.05 "/>
   <polygon class="fil6" points="935.78,1153.65 954.78,1153.52 954.79,1263.73 974.38,1263.76 974.62,1153.49 993.36,1154.1 994.52,1135.26 935.53,1135.26 "/>
   <polygon class="fil2" points="1260.68,1153.7 1260.19,1135.02 1200.16,1135.54 1200.26,1153.53 1221.16,1153.68 1221.45,1263.98 1240.7,1264.03 1240.56,1153.98 "/>
   <path class="fil2" d="M1106.77 1264.22l1.32 -18.29 -26.38 0.11c-13.64,0.46 -2.62,0.88 -6.95,-3.28l0.28 -108.79 -19.73 0.17 0.58 129.95 50.89 0.13z"/>
   <polygon class="fil2" points="1713.4,1264.03 1732.91,1264.15 1732.93,1133.97 1713.28,1134.15 "/>
   <path class="fil7" d="M1764.71 826.95c-2.28,-6.14 2.18,-3.53 -3.31,-4.06 -9.94,24.77 4.71,238.82 -4.73,248.71l-5.96 1.89c-3.2,0.57 -3.46,0.43 -6.7,0.5l-38.77 -0.95c-3.28,-13.2 -3.27,-381.37 -0.03,-394.27 21.44,-0.08 47.2,-2.55 66.13,2.29 -2.22,-9.1 -3.68,-6.95 -15.64,-6.73l-55.46 1.23 0.15 402.34 61.97 -0.87c-0.37,-30.67 -3.59,-239.75 2.33,-250.09z"/>
   <path class="fil8" d="M1855.48 1244.91c29.07,-1.14 22.82,-2.61 22.97,-59.15 0.06,-25.68 4.91,-31.89 -22.79,-32.15l-0.18 91.3z"/>
   <path class="fil8" d="M1954.36 1156.42c-21.94,-13.76 -20.9,7.32 -20.81,27.05 0.04,10.46 -1.81,49.68 2.07,56.46 3.94,6.87 14.86,6.74 18.64,0.03 3.92,-6.95 3.25,-73.15 0.11,-83.53z"/>
   <path class="fil9" d="M1836.12 1046.24l10.01 31.56 65.17 -0.59 -1.07 -402.09c-10.76,-0.63 -20.84,-0.26 -31.58,-0.29 -14.03,-0.04 -22.2,-2.14 -27.44,3.18l54.18 0.77c3.22,16.36 3.06,383.95 0.47,393.34 -11.99,3.33 -43.98,1.69 -57.51,0.54 -3.23,-9.35 -5.15,-21.14 -12.23,-26.41z"/>
   <path class="fil10" d="M1426.57 738.68l64.74 -0.64c0.7,-15.88 2.31,-50.31 -1.11,-63.26 -29.02,-2.18 -65.03,-0.43 -94.83,-0.42l-83.83 -0.25c-13.44,0.46 -7.31,-1.06 -11.05,3.8l186.3 0.61c5.7,11.87 2.3,43.83 0.13,56.52l-49.94 -0.37c-10.53,0.4 -8.48,-2.25 -10.41,4.01z"/>
   <path class="fil11" d="M878.3 1194.2c9.71,2.53 12.66,1.85 20.16,-1.18 0.07,-0.07 18.17,-45.19 -19.94,-38.19l-0.22 39.38z"/>
   <path class="fil12" d="M1162.01 1238.45c6.43,-4.36 3.19,-89.02 3.26,-103.57l18.24 0.09 0.36 104.2c4.65,-9.65 4.14,-90.86 1.36,-105.49 -7.97,-2.45 -13.4,-2.41 -22.37,-0.01l-0.86 104.78z"/>
   <path class="fil13" d="M2033.47 1238.94c5.56,-4.13 3.32,-8.83 3.25,-23.21l0.14 -80.46 17.9 -0.48 -0.08 106.29c3.39,-5.17 2.64,-3.15 2.99,-11.38l-1.26 -95.81c-7.8,-2.67 -12.97,-2.42 -21.85,-0.14l-1.08 105.18z"/>
   <path class="fil14" d="M1837.73 1263.95l-0.73 -129.65 38.92 1.61c-4.79,-4.8 -6.06,-3.74 -20.49,-3.85 -8.06,-0.06 -12.45,-0.5 -20.12,1.61l-0.85 116.72c-0.22,15.73 0.44,12.04 3.29,13.56z"/>
   <path class="fil15" d="M2308.1 1264.13c3.39,-3.46 2.12,-0.2 3.02,-6.81 1.96,-14.42 -0.93,-121.13 -1.44,-123.41 -7.72,-2.32 -20.37,-3.25 -27.74,1.19l26.47 -0.4 -0.3 129.43z"/>
   <polygon class="fil6" points="1008.96,1264.23 1028.51,1264.21 1027.22,1244.39 1009.43,1244.32 "/>
   <path class="fil15" d="M1123.44 1239.71l0.13 -104.34 17.92 1.99c-2.79,-5.01 4.72,-3.9 -8.56,-5.17 -3.49,-0.33 -7.38,0.89 -10.56,1.69 -3.4,14.31 -3.53,96.06 1.08,105.83z"/>
   <path class="fil16" d="M2354.27 1213.53l12.74 0.55 -0.72 -10.01 -3.86 -33.29c-1.21,2.03 -0.71,-0.83 -2.76,5.82 -0.42,1.35 -0.92,4.81 -1.17,6.38l-4.23 30.54z"/>
   <polygon class="fil17" points="1546.26,1212.07 1559.35,1213.51 1557.8,1203.65 1555.65,1176.59 1550.57,1176.09 "/>
   <polygon class="fil17" points="2159.53,1212.67 2172.6,1213.68 2171.19,1203.81 2168.78,1178.35 2164.2,1175.99 "/>
   <path class="fil12" d="M1794.34 1208.84l2.74 9.83c0.36,-0.55 0.91,-1.94 1.01,-1.64 0.1,0.31 0.72,-1.25 0.83,-1.72l0.83 -15.71c-0.07,-6.89 -0.03,-13.85 -0.04,-20.75 -0.01,-14.65 -0.2,-29.51 0.17,-44.13l18.94 0.35c-2.96,-3.03 5.52,-3.48 -9.76,-3.79 -6.52,-0.13 -5.92,0.63 -10.65,2.58l-0.84 58.86c0.04,14.73 0.45,13.49 -3.22,16.12z"/>
   <path class="fil18" d="M935.78 1153.65l-0.25 -18.39 58.99 0 -1.16 18.84c2.22,-2.46 1.61,0.09 3.03,-5.22 1.59,-5.95 0.07,-10.49 -1.34,-16.01l-61.08 0.84c-3.84,15.83 -2.61,17.23 1.81,19.94z"/>
   <path class="fil19" d="M1262.92 466.74c-3.05,-9.43 -7,-14.84 -12.61,-24.14 -4.59,-7.6 -8.5,-16.33 -15.25,-21.67 1.81,13.51 16.87,27.92 21.15,43.4l6.71 2.41z"/>
   <path class="fil20" d="M1260.68 1153.7c3.41,-6.09 2.45,-12.87 1.01,-19.7 -8.84,-2.65 -34.74,-1.5 -47.63,-1.6 -15.92,-0.13 -12.12,0.26 -13.9,3.14l60.03 -0.51 0.49 18.68z"/>
   <path class="fil20" d="M2131.45 1153.54c2.51,-2.54 5.68,-0.54 1.76,-19.88l-47.85 -1.23c-15.91,-0.08 -12.09,0.35 -13.76,3.4l59.96 -0.86 -0.11 18.57z"/>
   <path class="fil21" d="M1106.77 1264.22c3.23,-2.96 3.02,5.08 3.76,-9.17 0.23,-4.45 -0.75,-7.16 -1.68,-11.3l-34.1 -1c4.32,4.17 -6.69,3.74 6.95,3.28l26.38 -0.11 -1.32 18.29z"/>
   <path class="fil22" d="M1474.7 1208.95l-0.59 -18.55 30.31 0.48c-3.95,-3.2 5.94,-2.54 -6.82,-2.97l-24.63 0.96c-2.51,12.99 -3.36,16.72 1.73,20.07z"/>
   <path class="fil23" d="M1483.84 1174.26c4.36,6.98 -6.76,3.31 8.93,5.09 1.21,0.13 9.71,-0.47 11.76,-0.52 0.33,-6.89 2.73,-21.63 -3.5,-24.38 0.96,8.61 2.41,11.47 2.17,22.22 -10.53,0.27 -9.59,1.6 -19.37,-2.41z"/>
   <path class="fil19" d="M2335.35 745.34c0.79,-9.81 -9.35,-14.65 -18.2,-14.36l18.2 14.36z"/>
   <path class="fil24" d="M721.76 384.44l-0.97 -7.55c0.66,-0.33 1.25,-1.82 1.41,-1.4l2.73 -3.69 -9.89 0.68c1.65,7.36 0.78,7.34 6.71,11.96z"/>
   <path class="fil25" d="M1546.26 1212.07c3.84,3.73 -1.51,1.75 4.9,3.38 1.41,0.36 7.31,0.28 9.15,0.3 0.28,-6.68 1.16,-6.07 -2.52,-12.09l1.55 9.86 -13.09 -1.44z"/>
   <path class="fil26" d="M2159.53 1212.67c2.91,2.4 -0.49,1.76 5,2.94 1.59,0.35 7.31,0.23 9.29,0.24 0.21,-8.76 1.32,-5.67 -2.63,-12.04l1.41 9.87 -13.07 -1.01z"/>
   <path class="fil27" d="M1318.45 578.06c4.74,0.36 0.48,1.55 4.91,0.12 4.4,-1.43 3.33,-1.15 5.97,-3.11 -4.11,-10.86 -0.59,-2.86 -5.97,-6.46l1.94 6.31c-12.25,1.4 -3.09,0.1 -6.85,3.13z"/>
   <path class="fil28" d="M2354.27 1213.53l7.55 2.75c2.69,0.33 4.86,-0.35 7.43,-0.55 -0.29,-8.34 0.86,-5.71 -2.96,-11.66l0.72 10.01 -12.74 -0.55z"/>
   <path class="fil28" d="M1626 1051.53l17.27 4.49c-1.68,-9.92 0.94,-3.06 -4.01,-9.28 -0.68,8.06 2.83,2.01 -2.19,5.51l-11.06 -0.72z"/>
   <path class="fil29" d="M1208.71 1066.39c5.18,-1.99 1.75,2.28 8.28,-4.6 6.41,-6.74 0.74,0.49 2.98,-6.15 -5.05,3.17 -7.77,4.74 -11.27,10.74z"/>
   <path class="fil10" d="M2378.88 702.47c-1.93,-6.01 1.22,-3.65 -4.96,-5.92l-6.69 -4.38c2.68,4.37 0.67,2.91 4.81,6.39 2.38,2 3.08,1.98 6.83,3.91z"/>
   <path class="fil29" d="M2385.69 1040.87c7.53,-4.09 0.6,3.39 6.73,-4.77 1.99,-2.66 1.68,-4.16 2.55,-7.9 -0.48,0.46 -1.23,0.45 -1.45,1.36 -0.22,0.88 -1.1,1 -1.39,1.34l-6.45 9.97z"/>
   <path class="fil27" d="M1203.69 363.76c-3,-7.08 -1.39,-7.6 -8.84,-10.44 2.36,5.06 -0.41,1.63 2.55,5.23 4.27,5.19 2.45,2.51 6.29,5.21z"/>
   <polygon class="fil13" points="1550.57,1176.09 1555.65,1176.59 1555.27,1170.74 1550.4,1169.11 "/>
   <path class="fil30" d="M2364.27 1063.1c5.72,-2.27 3.73,-0.28 8.74,-4.59 4.67,-4.01 3.09,-3.49 5.31,-7.56l-14.05 12.15z"/>
   <path class="fil31" d="M1233.62 1041.01c5.75,-3.62 0.71,3.04 6.45,-4.88 3.02,-4.16 1.49,-2.78 2.39,-7.93l-8.84 12.81z"/>
   <path class="fil27" d="M2084.61 1010.9c7.04,-3.58 5.73,-2.95 9.35,-10.03 -4.3,2.79 -2.27,0.3 -6.54,5.01 -4.37,4.82 -0.22,0.1 -2.82,5.03z"/>
   <polygon class="fil32" points="2223.94,716.32 2228.44,714.63 2230.41,708.32 2225.96,709.81 "/>
   <path class="fil29" d="M2100.92 683.42c-0.53,-0.48 -1.19,-2.02 -1.56,-1.48 -0.37,0.54 -1.22,-1.07 -1.72,-1.26 -4.85,-1.92 -0.26,-0.88 -6.81,-1.7 0,4.96 4.21,3.57 10.1,4.44z"/>
   <path class="fil12" d="M1541.27 987.87c-3.66,-3.34 -2.47,-0.61 -3.25,-7.24 -3.63,3.56 -2.31,-0.95 -3.42,6.91l6.67 0.32z"/>
   <polygon class="fil25" points="2164.2,1175.99 2168.78,1178.35 2168.61,1173.96 2163.81,1170.38 "/>
   <path class="fil33" d="M842.89 594.65c-3.05,-10.54 -1.01,-4.5 -5.34,-7.29l0.76 5.62 4.58 1.66z"/>
   <path class="fil31" d="M835.16 584.27l-1.4 -4.85c0,-4.49 1.14,-3.38 -3.36,-3.38 1.88,8.69 -2.2,3 4.76,8.23z"/>
   <path class="fil30" d="M785.42 495.16l-2.71 -5.9c0,-3.56 0.78,-2.43 -3.25,-2.43 3.03,9.96 2.01,5.33 5.96,8.34z"/>
   <path class="fil34" d="M1169.59 1016.33c8.5,-2.89 2.73,1.54 7.1,-5.07l-4.24 1.23c-4.45,0 -3.15,-0.97 -2.86,3.84z"/>
   <path class="fil29" d="M1311.5 547.27c-1.46,-8.38 -0.37,-7.33 -7.39,-12.65l7.39 12.65z"/>
   <path class="fil33" d="M1232.45 413.59c-1.54,-9.05 -0.75,-7.17 -7.37,-11.13l7.37 11.13z"/>
   <path class="fil31" d="M2131.02 1047.66c4.57,-2.28 3.81,2.89 4.48,-2.42l0.69 -4.35c-6.55,4.3 -2.4,-0.97 -5.18,6.77z"/>
   <path class="fil35" d="M2279.13 741.1c10.3,-2.91 4.36,-0.67 6.93,-5.26 -7.98,2.17 -3.36,-1.75 -6.93,5.26z"/>
   <path class="fil31" d="M814.3 547.4c-2.34,-10.37 -0.9,-5.19 -4.97,-7.88 2.07,8.23 -2.04,2.69 4.97,7.88z"/>
   <path class="fil29" d="M2122.83 1054.36c7.84,-3.17 3.56,1.12 8.8,-6.59 -6.62,3.05 -3.47,-0.06 -8.8,6.59z"/>
   <path class="fil15" d="M2267.07 1220.83c-0.41,-0.56 -1.06,-1.17 -1.41,-1.55 -0.36,-0.38 -1.21,-0.52 -1.51,-1.54 -0.3,-1.06 -1.12,-0.99 -1.6,-1.55l1.6 9.25 2.92 -4.61z"/>
   <path class="fil36" d="M2163.81 1170.38l4.8 3.58 -1.35 -7.14c-3.59,2.32 -0.66,-2.4 -3.45,3.56z"/>
   <path class="fil30" d="M2247.43 691.33c5.95,-2.32 0.96,0.91 4.07,-1.84 3.64,-3.2 1.38,-0.66 3.99,-4.72 -6.27,2.56 -0.31,-1.27 -3.82,1.8 -3.65,3.17 -1.45,0.88 -4.25,4.76z"/>
   <path class="fil27" d="M1318.56 558.53c-2.35,-7.93 1.51,-5.07 -6.6,-8.87l6.6 8.87z"/>
   <path class="fil31" d="M1279.14 491.43l-1.6 -5.77c-0.94,-6.67 0,0.46 -4.76,-2.93l6.37 8.7z"/>
   <path class="fil23" d="M1550.4 1169.11l4.87 1.63 -1.42 -5.66c-3,1.61 -1.65,0.08 -3.45,4.03z"/>
   <path class="fil20" d="M1505.05 1070.64l-5.89 0.39 1.7 -4.8c-4.79,4.64 -2.87,-2.14 -2.98,6.99l7.18 -2.57z"/>
   <path class="fil29" d="M1100.6 1067c-2.62,-3.96 -0.6,-1.6 -3.96,-4.83 -2.95,-2.84 1.88,0.75 -3.8,-2.17 2.69,4.04 0.71,1.75 4.09,5.01 3.82,3.68 -2.81,-1.11 3.67,2z"/>
   <path class="fil37" d="M755.88 446l-1 -4.34c0,-4.84 1.27,-3.71 -3.48,-3.71l4.48 8.05z"/>
   <path class="fil20" d="M1545.21 438.33c-0.3,-5.14 -0.66,-2.84 1.39,-6.55l-5.14 2.03 3.75 4.52z"/>
   <path class="fil10" d="M1219.97 1055.65l3.49 -0.67c3.83,0 2.42,0.75 2.55,-3.87l-6.04 4.54z"/>
   <path class="fil22" d="M529.12 1011.25c3.29,5.47 -4.31,3.13 4.62,4.83l2.53 -5.84 -1.59 4.58 -5.56 -3.58z"/>
   <path class="fil34" d="M739.93 418.35l-1.6 -4.63c0,-4.33 1.09,-3.25 -3.26,-3.25l4.85 7.88z"/>
   <polygon class="fil28" points="1708.74,537.19 1703.09,531.66 "/>
   <polygon class="fil33" points="761.02,454.58 756.66,446.23 "/>
  </g>
 </g>
</svg>
