<?xml version="1.0" encoding="UTF-8"?>
<!DOCTYPE svg PUBLIC "-//W3C//DTD SVG 1.1//EN" "http://www.w3.org/Graphics/SVG/1.1/DTD/svg11.dtd">
<!-- Creator: CorelDRAW 2019 (64-Bit) -->
<svg xmlns="http://www.w3.org/2000/svg" xml:space="preserve" width="8.5in" height="11in" version="1.1" style="shape-rendering:geometricPrecision; text-rendering:geometricPrecision; image-rendering:optimizeQuality; fill-rule:evenodd; clip-rule:evenodd"
viewBox="0 0 8500 11000"
 xmlns:xlink="http://www.w3.org/1999/xlink"
 xmlns:xodm="http://www.corel.com/coreldraw/odm/2003">
 <defs>
  <style type="text/css">
   <![CDATA[
    .fil0 {fill:#282829}
   ]]>
  </style>
 </defs>
 <g id="Layer_x0020_1">
  <metadata id="CorelCorpID_0Corel-Layer"/>
  <path class="fil0" d="M-2371.94 6993.11c163.29,98.78 183.44,147.48 286.15,353.26l-296.52 103.22 10.37 -456.48zm-240.35 1.13l-4.99 472.45c-208.82,-103.26 -133.42,-63.78 -280.12,-221.55l285.11 -250.9zm934.59 -826.1c-552.47,4.68 -1078.5,-223.15 -1250.08,-777.51 243.78,109.67 441.45,250 679.38,383.58 207.34,116.44 433.59,232.9 570.7,393.93zm-107.65 -1025.52c75.98,-34.9 -158.11,-194.63 171.72,-12.83 -71.48,47.24 125.7,179.83 -171.72,12.83zm845.19 -1760.16l-159.65 -213.36 159.65 213.36zm789.82 60.35c-134.77,-369.7 -949.62,-509.34 -1208.12,-439.71 -156.94,278.99 -36.69,164.15 -18.15,230.99 39.23,141.46 50.87,78.34 122.39,173.02 138.06,182.79 173.59,97.78 38.45,326.39l-571.17 -56.93c8.03,556.52 212.99,267.08 226.23,694.31l-616.74 -12.63c-13.04,452.48 357.49,343.94 223.21,608.02 -151.15,297.28 -315.34,-111.64 -619.17,103.91 171.91,236.96 328.28,53.38 360.53,365.64 -341.09,64.72 -624.61,-481.63 -1041.14,-413.02 -23.79,1197.57 1358.52,855.27 162.63,2123.62 -81.42,86.34 -936.15,782.11 -761.31,956.21 130.19,129.66 476.66,-378.84 786.89,-619.13 599.52,400.04 257.29,129.13 513.16,677.45 302.08,-114.18 20.18,-447.24 670.27,-691.31 233.82,182.07 424.31,647.21 740.02,680.72 103.73,-391.46 159.98,3.59 -294.18,-507.72 -141.15,-158.93 -221.03,-275.39 -360.55,-438.56 -240.68,-281.51 -700.69,-451.47 -544.5,-886.62 455.08,81.56 748.6,212.41 1141.42,-88.54 -144.07,-372.33 -719.29,-340.3 -841.17,-727.23 298.43,-252.03 227.3,20.16 690.45,-93.07 86.92,-492.69 -247.6,-384.44 -212.23,-628.12 90.65,-61.85 15.72,-66.24 336.51,-48.84 126.35,6.88 152.16,26.28 298.47,17.74 -51.44,-478.69 -146.78,-282.91 -262.03,-620.69 312.12,-197.12 548.33,157.19 624.06,-153.87 57.19,-234.87 -218.49,-302.8 -213.46,-519.42 202.17,-208.92 276.3,8.09 629.25,-12.63z"/>
 </g>
</svg>
