<?xml version="1.0" encoding="UTF-8"?>
<!DOCTYPE svg PUBLIC "-//W3C//DTD SVG 1.1//EN" "http://www.w3.org/Graphics/SVG/1.1/DTD/svg11.dtd">
<!-- Creator: CorelDRAW 2019 (64-Bit) -->
<svg xmlns="http://www.w3.org/2000/svg" xml:space="preserve" width="3.26789in" height="4.65534in" version="1.1" style="shape-rendering:geometricPrecision; text-rendering:geometricPrecision; image-rendering:optimizeQuality; fill-rule:evenodd; clip-rule:evenodd"
viewBox="0 0 596.78 850.16"
 xmlns:xlink="http://www.w3.org/1999/xlink"
 xmlns:xodm="http://www.corel.com/coreldraw/odm/2003">
 <defs>
  <style type="text/css">
   <![CDATA[
    .str0 {stroke:black;stroke-width:10.15;stroke-miterlimit:2.61313}
    .fil1 {fill:black}
    .fil0 {fill:#DFE0E2}
   ]]>
  </style>
 </defs>
 <g id="Layer_x0020_1">
  <metadata id="CorelCorpID_0Corel-Layer"/>
  <polygon class="fil0" points="543.76,60.73 515.58,23.08 "/>
  <path class="fil1 str0" d="M191.19 629.83l209.67 0.28 36.43 89.43 -279.37 2.54 33.27 -92.25zm58.15 -133.93l98.99 0.02 32.23 92.72 -171.03 -0.92 39.81 -91.82zm15.7 -44.2c10.65,-39.44 2.97,-35.49 31.44,-59.8 29.6,24.44 21.12,19.45 31.75,62.51l-63.19 -2.71zm-7.21 -193.02c43.53,-28.98 120.92,-1.52 71.1,81.66 -72.07,23.06 -87.7,-27.09 -71.1,-81.66zm-35.38 89.69c34.05,63.84 4.46,81.64 -24.96,156.34 -23.75,60.32 -134.55,292.45 -113.15,338.82 48.62,-18.07 11.97,2.41 58.93,-81.47l306.43 2.37c28.1,43.56 16.3,62.4 58.93,79.26 24.15,-51.52 -95.01,-294.23 -116.16,-347.81 -36.71,-93.03 -55.86,-80.03 -17.92,-155.29 86.45,-171.5 -247.04,-170.25 -152.1,7.78z"/>
  <path class="fil1 str0" d="M118.45 524.21c8.13,-13.28 27.2,18.04 0.88,-36.7 -3.62,-7.54 -43.39,-41.54 -64.93,-102.02 -20.15,-56.57 -17.89,-129.16 4.35,-184.26 133.67,-331.18 686.25,-83.15 425.51,274.33 -61.61,84.46 11.26,57.46 50.44,1.14 158.26,-227.5 -35.86,-518.36 -302.19,-465.48 -335.44,66.6 -233.05,527.57 -114.07,513z"/>
  <path class="fil1 str0" d="M169.77 416.66c7.87,-43.64 -53.11,-88.36 -15.02,-178.85 34.46,-81.88 153.42,-119.41 228.91,-63.34 129.64,96.28 30.57,205.79 40.78,241.15 25.05,10.71 35.07,-4.55 43.09,-16.57 9.99,-14.98 16.15,-36.44 19.61,-54.96 45.13,-241.4 -283.3,-326.99 -370.09,-120.26 -18.29,43.57 -21.13,81.72 -9.46,131.18 3.63,15.36 12.56,40.81 22.05,51.6 38.38,43.62 38.73,10.63 40.13,10.07z"/>
 </g>
</svg>
